HIERARCHY
ROOT Hips
{
	OFFSET 0.00000 0.00000 0.00000
	CHANNELS 6 Xposition Yposition Zposition Zrotation Yrotation Xrotation 
	JOINT LHipJoint
	{
		OFFSET 0 0 0
		CHANNELS 3 Zrotation Yrotation Xrotation
		JOINT LeftHip
		{
			OFFSET 1.62329 -1.80800 0.67318
			CHANNELS 3 Zrotation Yrotation Xrotation
			JOINT LeftKnee
			{
				OFFSET 2.57139 -7.06484 0.00000
				CHANNELS 3 Zrotation Yrotation Xrotation
				JOINT LeftAnkle
				{
					OFFSET 2.52017 -6.92413 0.00000
					CHANNELS 3 Zrotation Yrotation Xrotation
					JOINT LeftToe
					{
						OFFSET 0.23295 -0.64001 2.10214
						CHANNELS 3 Zrotation Yrotation Xrotation
						End Site
						{
							OFFSET 0.00000 -0.00000 1.10139
						}
					}
				}
			}
		}
	}
	JOINT RHipJoint
	{
		OFFSET 0 0 0
		CHANNELS 3 Zrotation Yrotation Xrotation
		JOINT RightHip
		{
			OFFSET -1.48061 -1.80800 0.67318
			CHANNELS 3 Zrotation Yrotation Xrotation
			JOINT RightKnee
			{
				OFFSET -2.63258 -7.23296 0.00000
				CHANNELS 3 Zrotation Yrotation Xrotation
				JOINT RightAnkle
				{
					OFFSET -2.54779 -7.00000 0.00000
					CHANNELS 3 Zrotation Yrotation Xrotation
					JOINT RightToe
					{
						OFFSET -0.23067 -0.63376 2.12161
						CHANNELS 3 Zrotation Yrotation Xrotation
						End Site
						{
							OFFSET -0.00000 -0.00000 1.11000
						}
					}
				}
			}
		}
	}
	JOINT lowerback
	{
		OFFSET 0 0 0
		CHANNELS 3 Zrotation Yrotation Xrotation
		JOINT Chest
		{
			OFFSET -0.02108 2.07573 -0.16981
			CHANNELS 3 Zrotation Yrotation Xrotation
			JOINT Chest2
			{
				OFFSET 0.05070 2.08439 -0.03141
				CHANNELS 3 Zrotation Yrotation Xrotation
				JOINT lowerneck
				{
					OFFSET 0 0 0
					CHANNELS 3 Zrotation Yrotation Xrotation
					JOINT Neck
					{
						OFFSET -0.10731 1.60408 0.31370
						CHANNELS 3 Zrotation Yrotation Xrotation
						JOINT Head
						{
							OFFSET 0.08411 1.65679 -0.30822
							CHANNELS 3 Zrotation Yrotation Xrotation
							End Site
							{
								OFFSET 0.03911 1.69149 -0.14146
							}
						}
					}
				}
				JOINT LeftCollar
				{
					OFFSET 0 0 0
					CHANNELS 3 Zrotation Yrotation Xrotation
					JOINT LeftShoulder
					{
						OFFSET 3.52315 0.73219 -0.54694
CHANNELS 3 Zrotation Xrotation Yrotation
						JOINT LeftElbow
						{
OFFSET 0 -5.324620 -0.000000
CHANNELS 3 Zrotation Xrotation Yrotation
							JOINT LeftWrist
							{
OFFSET 0 -3.484020 -0.000000
CHANNELS 3 Zrotation Xrotation Yrotation
								JOINT lhand
								{
									OFFSET 0 0 0
CHANNELS 3 Zrotation Xrotation Yrotation
									JOINT LFingers
									{
OFFSET 0 -0.572480 -0.000000
CHANNELS 3 Zrotation Xrotation Yrotation
										End Site
										{
OFFSET 0 -0.461540 -0.000000
										}
									}
								}
								JOINT LThumb
								{
OFFSET 0 0.000000 0.000000
CHANNELS 3 Zrotation Xrotation Yrotation
									End Site
									{
OFFSET 0 -0.468590 0.468590
									}
								}
							}
						}
					}
				}
				JOINT RightCollar
				{
					OFFSET 0 0 0
					CHANNELS 3 Zrotation Yrotation Xrotation
					JOINT RightShoulder
					{
						OFFSET -3.41766 0.93592 -0.10019
CHANNELS 3 Zrotation Xrotation Yrotation
						JOINT RightElbow
						{
OFFSET 0 -5.335890 -0.000000
CHANNELS 3 Zrotation Xrotation Yrotation
							JOINT RightWrist
							{
OFFSET 0 -3.641340 -0.000000
CHANNELS 3 Zrotation Xrotation Yrotation
								JOINT rhand
								{
									OFFSET 0 0 0
CHANNELS 3 Zrotation Xrotation Yrotation
									JOINT RFingers
									{
OFFSET 0 -0.734810 -0.000000
CHANNELS 3 Zrotation Xrotation Yrotation
										End Site
										{
OFFSET 0 -0.592420 -0.000000
										}
									}
								}
								JOINT RThumb
								{
OFFSET 0 0.000000 0.000000
CHANNELS 3 Zrotation Xrotation Yrotation
									End Site
									{
OFFSET 0 -0.601470 0.601470
									}
								}
							}
						}
					}
				}
			}
		}
	}
}
MOTION
Frames: 10
Frame Time: 0.008333333333333333
2.514231 33.271519 -3.341400 177.954836 -3.807367 -171.504945 0.000000 0.000000 0.000000 -21.632972 -5.902617 -22.043767 2.524428 9.882206 28.596258 0.408422 -2.016351 -11.541897 0.580919 -4.880291 -13.567403 0.000000 0.000000 0.000000 20.344799 9.480098 -23.489615 -3.396597 -11.311000 33.335946 -0.804467 4.063688 -16.063797 -1.366362 -7.398137 20.900434 -3.038102 0.015727 5.064600 1.068145 -0.144625 0.309119 2.818297 -0.041301 -2.512420 -9.371456 3.499829 -16.894345 0.597504 3.399526 42.044133 2.073265 -1.754702 18.522493 0.000000 0.000000 0.000000 5.165679 -30.190263 -47.332176 54.355091 -54.607767 29.689600 35.032676 47.337830 -23.929782 0.000000 0.000000 0.000000 -7.125000 0.000000 0.000000 6.614950 58.313084 -2.160417 0.000000 0.000000 0.000000 -3.084665 -28.802583 63.665192 -70.371213 -58.492914 -43.087046 -16.821959 52.554478 2.673283 0.000000 0.000000 0.000000 7.125000 0.000000 0.000000 7.910426 32.701601 2.401858
2.558061 33.256549 -3.353826 178.095920 -4.056626 -171.640838 0.000000 0.000000 0.000000 -21.363562 -6.109898 -21.888420 2.546176 9.921435 28.722547 0.434360 -1.737977 -11.967959 0.574994 -4.855778 -13.497758 0.000000 0.000000 0.000000 20.717457 9.246547 -23.405123 -3.402343 -11.319411 33.364933 -0.827478 4.114806 -16.293985 -1.361593 -7.385703 20.863101 -2.822792 0.015819 5.254652 1.263304 -0.135523 0.319897 2.899243 -0.038071 -2.608485 -9.754553 3.577298 -16.528347 0.758954 3.474077 42.100620 2.220551 -1.782838 18.433473 0.000000 0.000000 0.000000 4.894418 -30.121863 -47.241559 54.308011 -54.591843 29.651119 35.676222 47.440302 -23.794595 0.000000 0.000000 0.000000 -7.125000 0.000000 0.000000 7.402826 58.320406 -2.420748 0.000000 0.000000 0.000000 -3.453629 -28.802035 63.991390 -70.495214 -58.512506 -43.192742 -17.205449 53.285741 4.240628 0.000000 0.000000 0.000000 7.125000 0.000000 0.000000 7.770447 34.338014 2.049128
2.603273 33.235557 -3.361436 178.124763 -4.281785 -171.669252 0.000000 0.000000 0.000000 -21.186868 -6.417485 -21.766584 2.554050 9.935541 28.768297 0.455410 -1.496646 -12.316429 0.620235 -5.040044 -14.022721 0.000000 0.000000 0.000000 20.915068 9.150543 -23.515525 -3.440885 -11.376668 33.561041 -0.857886 4.241765 -16.588968 -1.372201 -7.413390 20.945976 -2.601193 0.001842 5.190651 1.297548 -0.143623 0.500323 2.809139 -0.052913 -2.386394 -10.136741 3.599697 -16.435226 1.032811 3.533767 42.064574 2.429925 -1.771054 18.358551 0.000000 0.000000 0.000000 4.723611 -30.501376 -47.120782 54.131491 -54.531728 29.507329 35.433211 46.862705 -23.220051 0.000000 0.000000 0.000000 -7.125000 0.000000 0.000000 7.183646 57.604049 -2.225772 0.000000 0.000000 0.000000 -3.535182 -29.211668 64.310887 -70.937792 -58.581497 -43.570306 -15.882763 52.439289 0.620976 0.000000 0.000000 0.000000 7.125000 0.000000 0.000000 8.457788 30.564116 3.008633
2.647406 33.217145 -3.369399 177.897175 -4.394181 -171.689397 0.000000 0.000000 0.000000 -21.306287 -6.618698 -21.593971 2.543442 9.916404 28.706415 0.477767 -1.295131 -12.671817 0.568164 -4.826731 -13.415131 0.000000 0.000000 0.000000 20.823075 8.912269 -23.668086 -3.479771 -11.433998 33.757830 -0.864144 4.549208 -16.625714 -1.399693 -7.483982 21.157574 -2.731016 0.086836 5.300373 1.231417 -0.041404 0.493965 2.807152 0.000683 -2.461382 -10.070081 3.623901 -16.381662 1.131638 3.450356 42.258694 2.447023 -1.803195 18.463849 0.000000 0.000000 0.000000 4.727590 -30.433884 -47.110562 54.824737 -54.765119 30.072825 33.365205 45.236552 -22.774246 0.000000 0.000000 0.000000 -7.125000 0.000000 0.000000 4.861474 56.606632 -1.404814 0.000000 0.000000 0.000000 -3.735056 -29.978733 64.762751 -70.866318 -58.570439 -43.509293 -16.004692 52.631127 1.965171 0.000000 0.000000 0.000000 7.125000 0.000000 0.000000 8.490374 31.949501 2.737597
2.691283 33.206398 -3.386752 177.987267 -4.560237 -171.679451 0.000000 0.000000 0.000000 -21.077431 -6.797741 -21.501312 2.541625 9.913201 28.696102 0.488076 -1.013459 -12.884606 0.483303 -4.457811 -12.368307 0.000000 0.000000 0.000000 21.103866 8.788168 -23.707234 -3.502706 -11.467508 33.873178 -0.876678 4.642750 -16.742054 -1.435747 -7.575918 21.433253 -2.897720 0.004068 5.267056 1.532666 -0.155997 0.475060 3.221482 -0.054535 -2.453133 -10.423255 3.814818 -16.141004 1.187450 3.743888 42.362531 2.578802 -1.765032 18.423193 0.000000 0.000000 0.000000 4.569355 -30.230461 -46.729840 55.521348 -54.993291 30.642603 34.129452 46.272115 -24.351965 0.000000 0.000000 0.000000 -7.125000 0.000000 0.000000 5.470811 58.565293 -1.818171 0.000000 0.000000 0.000000 -3.865269 -29.937179 65.189535 -70.964294 -58.585582 -43.592888 -16.229211 53.088542 1.976045 0.000000 0.000000 0.000000 7.125000 0.000000 0.000000 8.312468 31.966071 2.675793
2.737408 33.196482 -3.396582 177.952681 -4.643991 -171.552346 0.000000 0.000000 0.000000 -20.987921 -6.918851 -21.527680 2.535374 9.901967 28.659897 0.494458 -0.746779 -13.045655 0.482622 -4.454450 -12.358876 0.000000 0.000000 0.000000 21.206524 8.993136 -23.871205 -3.545821 -11.530128 34.089412 -0.898916 4.573896 -16.964157 -1.462946 -7.644228 21.638575 -2.871581 0.115398 5.135176 1.490489 -0.003025 0.504852 3.151219 0.019523 -2.360428 -10.772865 3.805793 -15.950763 1.578550 3.643306 42.408095 2.805002 -1.807641 18.377452 0.000000 0.000000 0.000000 4.684967 -30.379921 -46.858143 55.740219 -55.063575 30.821970 33.988761 46.236221 -25.028732 0.000000 0.000000 0.000000 -7.125000 0.000000 0.000000 5.176235 59.290433 -1.810139 0.000000 0.000000 0.000000 -3.627856 -29.940319 64.848897 -70.970229 -58.586378 -43.597964 -16.183079 53.700876 1.748304 0.000000 0.000000 0.000000 7.125000 0.000000 0.000000 8.326247 31.730402 2.727909
2.788199 33.200354 -3.398968 177.875504 -5.063175 -171.572751 0.000000 0.000000 0.000000 -20.879477 -7.031548 -21.483518 2.531151 9.894388 28.635287 0.504948 -1.027639 -13.106338 0.410784 -4.114415 -11.398848 0.000000 0.000000 0.000000 21.332019 8.959031 -23.897552 -3.579736 -11.579096 34.258878 -0.922701 4.255684 -17.222762 -1.462019 -7.641804 21.631308 -3.047408 -0.077316 5.299100 1.575784 -0.274507 0.520825 3.359467 -0.114051 -2.413973 -10.747512 4.007627 -15.878249 1.605974 3.890900 42.507966 2.855012 -1.719164 18.390469 0.000000 0.000000 0.000000 4.938252 -29.950774 -45.938877 56.626160 -55.341786 31.549476 34.830679 46.982739 -25.624593 0.000000 0.000000 0.000000 -7.125000 0.000000 0.000000 6.090741 60.176558 -2.261790 0.000000 0.000000 0.000000 -3.083749 -29.893211 65.331444 -70.520594 -58.516530 -43.214444 -16.990077 54.593166 2.193899 0.000000 0.000000 0.000000 7.125000 0.000000 0.000000 7.726364 32.210116 2.438225
2.829972 33.203136 -3.405835 177.936199 -5.377743 -171.439392 0.000000 0.000000 0.000000 -20.620766 -7.291720 -21.584809 2.535631 9.902337 28.661184 0.506866 -1.117307 -13.108592 0.401306 -4.067145 -11.265786 0.000000 0.000000 0.000000 21.561474 8.669610 -24.155500 -3.592125 -11.596853 34.320416 -0.903283 4.233479 -17.037094 -1.484671 -7.698131 21.801043 -2.948746 -0.175216 5.144043 1.674991 -0.398368 0.674780 3.412785 -0.186026 -2.158492 -10.763490 4.078994 -15.839930 1.612739 4.023952 42.447904 2.886842 -1.652730 18.329096 0.000000 0.000000 0.000000 5.318097 -30.219474 -45.450690 57.405267 -55.577898 32.191267 34.216349 45.867370 -25.093378 0.000000 0.000000 0.000000 -7.125000 0.000000 0.000000 5.497303 59.439023 -2.040180 0.000000 0.000000 0.000000 -2.628134 -30.140133 65.463819 -70.238347 -58.471718 -42.973736 -17.317525 55.463907 2.320195 0.000000 0.000000 0.000000 7.125000 0.000000 0.000000 7.476247 32.349535 2.332731
2.874198 33.205374 -3.413893 177.811890 -5.798695 -171.413003 0.000000 0.000000 0.000000 -20.581889 -7.472956 -21.505045 2.515004 9.865179 28.541154 0.485631 -1.151612 -12.814434 0.441226 -4.261512 -11.813578 0.000000 0.000000 0.000000 21.577731 8.501686 -24.307878 -3.632650 -11.654836 34.521562 -0.906023 4.048060 -17.082638 -1.398250 -7.480210 21.146150 -2.979522 -0.258464 5.099083 1.628616 -0.513175 0.789525 3.388510 -0.248949 -2.005785 -10.952516 4.149391 -15.532474 1.877553 4.038672 42.359754 3.041546 -1.625333 18.167811 0.000000 0.000000 0.000000 5.869278 -30.395176 -45.167754 58.090677 -55.779029 32.757332 32.495902 43.865836 -24.383508 0.000000 0.000000 0.000000 -7.125000 0.000000 0.000000 3.537313 58.198462 -1.141472 0.000000 0.000000 0.000000 -2.134776 -30.117876 65.376708 -70.039195 -58.439608 -42.804000 -17.260243 56.255280 2.226129 0.000000 0.000000 0.000000 7.125000 0.000000 0.000000 7.513182 32.250499 2.362495
2.914974 33.207871 -3.414792 177.790180 -6.381556 -171.312836 0.000000 0.000000 0.000000 -20.420157 -7.652434 -21.556661 2.488768 9.817443 28.387517 0.460598 -1.531874 -12.380619 0.466414 -4.380470 -12.149687 0.000000 0.000000 0.000000 21.680007 8.227779 -24.595664 -3.670392 -11.708413 34.708044 -0.899102 3.956928 -17.025015 -1.383417 -7.442207 21.032263 -2.936040 -0.345322 5.277184 1.681862 -0.632099 0.790393 3.429346 -0.307796 -2.094873 -11.264908 4.165590 -15.497832 2.169619 4.039573 42.431978 3.235478 -1.637742 18.176177 0.000000 0.000000 0.000000 5.480834 -30.231127 -44.574657 58.548595 -55.910607 33.136194 32.002104 43.155217 -22.943768 0.000000 0.000000 0.000000 -7.125000 0.000000 0.000000 3.272518 56.477193 -0.921542 0.000000 0.000000 0.000000 -1.847015 -29.919095 65.170433 -70.077760 -58.445884 -42.836855 -17.409848 57.157145 2.335305 0.000000 0.000000 0.000000 7.125000 0.000000 0.000000 7.403663 32.367699 2.306702
